<?xml version="1.0" encoding="utf-8" standalone="no"?>
<!DOCTYPE svg PUBLIC "-//W3C//DTD SVG 1.1//EN"
  "http://www.w3.org/Graphics/SVG/1.1/DTD/svg11.dtd">
<svg xmlns:xlink="http://www.w3.org/1999/xlink" width="936pt" height="288pt" viewBox="0 0 936 288" xmlns="http://www.w3.org/2000/svg" version="1.1">
 <metadata>
  <rdf:RDF xmlns:dc="http://purl.org/dc/elements/1.1/" xmlns:cc="http://creativecommons.org/ns#" xmlns:rdf="http://www.w3.org/1999/02/22-rdf-syntax-ns#">
   <cc:Work>
    <dc:type rdf:resource="http://purl.org/dc/dcmitype/StillImage"/>
    <dc:date>2026-09-28T14:19:32.305659</dc:date>
    <dc:format>image/svg+xml</dc:format>
    <dc:creator>
     <cc:Agent>
      <dc:title>Matplotlib v3.11.1, https://matplotlib.org/</dc:title>
     </cc:Agent>
    </dc:creator>
   </cc:Work>
  </rdf:RDF>
 </metadata>
 <defs>
  <style type="text/css">*{stroke-linejoin: round; stroke-linecap: butt}</style>
 </defs>
 <g id="figure_1">
  <g id="patch_1">
   <path d="M 0 288
L 936 288
L 936 0
L 0 0
z
" style="fill: #080e19"/>
  </g>
  <g id="text_1">
   <!-- UMA AMPLITUDE COMPLEXA -->
   <g style="fill: #75dfd0" transform="translate(42.12 46.08) scale(0.12 -0.12)">
    <defs>
     <path id="Montserrat-Thin-126" d="M 2528 -64
Q 1606 -64 1084 454
Q 563 973 563 1952
L 563 4480
L 1395 4480
L 1395 1984
Q 1395 1293 1692 979
Q 1990 666 2534 666
Q 3078 666 3372 979
Q 3667 1293 3667 1984
L 3667 4480
L 4486 4480
L 4486 1952
Q 4486 973 3964 454
Q 3443 -64 2528 -64
z
" transform="scale(0.015625)"/>
     <path id="Montserrat-Thin-b9" d="M 602 0
L 602 4480
L 1286 4480
L 3245 1210
L 2886 1210
L 4813 4480
L 5498 4480
L 5504 0
L 4717 0
L 4710 3245
L 4877 3245
L 3238 512
L 2867 512
L 1203 3245
L 1395 3245
L 1395 0
L 602 0
z
" transform="scale(0.015625)"/>
     <path id="Montserrat-Thin-1" d="M -32 0
L 1984 4480
L 2803 4480
L 4826 0
L 3955 0
L 2221 4038
L 2554 4038
L 826 0
L -32 0
z
M 896 1037
L 1120 1690
L 3539 1690
L 3763 1037
L 896 1037
z
" transform="scale(0.015625)"/>
     <path id="Montserrat-Thin-8bd" transform="scale(0.015625)"/>
     <path id="Montserrat-Thin-f8" d="M 602 0
L 602 4480
L 2445 4480
Q 3040 4480 3465 4288
Q 3891 4096 4121 3737
Q 4352 3379 4352 2886
Q 4352 2394 4121 2035
Q 3891 1677 3465 1485
Q 3040 1293 2445 1293
L 1062 1293
L 1434 1683
L 1434 0
L 602 0
z
M 1434 1594
L 1062 1997
L 2406 1997
Q 2957 1997 3235 2230
Q 3514 2464 3514 2886
Q 3514 3315 3235 3545
Q 2957 3776 2406 3776
L 1062 3776
L 1434 4186
L 1434 1594
z
" transform="scale(0.015625)"/>
     <path id="Montserrat-Thin-a9" d="M 602 0
L 602 4480
L 1434 4480
L 1434 704
L 3776 704
L 3776 0
L 602 0
z
" transform="scale(0.015625)"/>
     <path id="Montserrat-Thin-87" d="M 602 0
L 602 4480
L 1434 4480
L 1434 0
L 602 0
z
" transform="scale(0.015625)"/>
     <path id="Montserrat-Thin-119" d="M 1510 0
L 1510 3776
L 26 3776
L 26 4480
L 3827 4480
L 3827 3776
L 2342 3776
L 2342 0
L 1510 0
z
" transform="scale(0.015625)"/>
     <path id="Montserrat-Thin-38" d="M 602 0
L 602 4480
L 2560 4480
Q 3290 4480 3840 4198
Q 4390 3917 4697 3417
Q 5005 2918 5005 2240
Q 5005 1568 4697 1065
Q 4390 563 3840 281
Q 3290 0 2560 0
L 602 0
z
M 1434 704
L 2522 704
Q 3021 704 3392 896
Q 3763 1088 3964 1433
Q 4166 1779 4166 2240
Q 4166 2707 3964 3049
Q 3763 3392 3392 3584
Q 3021 3776 2522 3776
L 1434 3776
L 1434 704
z
" transform="scale(0.015625)"/>
     <path id="Montserrat-Thin-48" d="M 602 0
L 602 4480
L 3872 4480
L 3872 3782
L 1434 3782
L 1434 698
L 3962 698
L 3962 0
L 602 0
z
M 1370 1933
L 1370 2618
L 3597 2618
L 3597 1933
L 1370 1933
z
" transform="scale(0.015625)"/>
     <path id="Montserrat-Thin-2d" d="M 2675 -64
Q 2163 -64 1724 105
Q 1286 275 963 585
Q 640 896 461 1318
Q 282 1741 282 2240
Q 282 2739 461 3161
Q 640 3584 966 3894
Q 1293 4205 1728 4374
Q 2163 4544 2682 4544
Q 3232 4544 3686 4355
Q 4141 4166 4454 3795
L 3917 3290
Q 3674 3552 3373 3683
Q 3072 3814 2720 3814
Q 2368 3814 2077 3699
Q 1786 3584 1571 3373
Q 1357 3162 1238 2874
Q 1120 2586 1120 2240
Q 1120 1894 1238 1606
Q 1357 1318 1571 1107
Q 1786 896 2077 781
Q 2368 666 2720 666
Q 3072 666 3373 797
Q 3674 928 3917 1197
L 4454 685
Q 4141 320 3686 128
Q 3232 -64 2675 -64
z
" transform="scale(0.015625)"/>
     <path id="Montserrat-Thin-ce" d="M 2701 -64
Q 2176 -64 1734 109
Q 1293 282 966 592
Q 640 902 461 1321
Q 282 1741 282 2240
Q 282 2739 461 3158
Q 640 3578 966 3888
Q 1293 4198 1734 4371
Q 2176 4544 2694 4544
Q 3219 4544 3657 4371
Q 4096 4198 4422 3888
Q 4749 3578 4928 3158
Q 5107 2739 5107 2240
Q 5107 1741 4928 1318
Q 4749 896 4422 589
Q 4096 282 3657 109
Q 3219 -64 2701 -64
z
M 2694 666
Q 3034 666 3322 781
Q 3610 896 3821 1110
Q 4032 1325 4150 1609
Q 4269 1894 4269 2240
Q 4269 2586 4150 2870
Q 4032 3155 3821 3369
Q 3610 3584 3322 3699
Q 3034 3814 2694 3814
Q 2355 3814 2070 3699
Q 1786 3584 1571 3369
Q 1357 3155 1238 2870
Q 1120 2586 1120 2240
Q 1120 1901 1238 1613
Q 1357 1325 1568 1110
Q 1779 896 2067 781
Q 2355 666 2694 666
z
" transform="scale(0.015625)"/>
     <path id="Montserrat-Thin-155" d="M 58 0
L 1946 2598
L 1946 1971
L 147 4480
L 1088 4480
L 2426 2624
L 2042 2618
L 3366 4480
L 4269 4480
L 2483 2016
L 2483 2618
L 4384 0
L 3424 0
L 2016 1971
L 2394 1971
L 1005 0
L 58 0
z
" transform="scale(0.015625)"/>
    </defs>
    <use xlink:href="#Montserrat-Thin-126"/>
    <use xlink:href="#Montserrat-Thin-b9" transform="translate(78.90625 0)"/>
    <use xlink:href="#Montserrat-Thin-1" transform="translate(174.40625 0)"/>
    <use xlink:href="#Montserrat-Thin-8bd" transform="translate(249.3125 0)"/>
    <use xlink:href="#Montserrat-Thin-1" transform="translate(276.90625 0)"/>
    <use xlink:href="#Montserrat-Thin-b9" transform="translate(351.8125 0)"/>
    <use xlink:href="#Montserrat-Thin-f8" transform="translate(447.3125 0)"/>
    <use xlink:href="#Montserrat-Thin-a9" transform="translate(518.90625 0)"/>
    <use xlink:href="#Montserrat-Thin-87" transform="translate(578.8125 0)"/>
    <use xlink:href="#Montserrat-Thin-119" transform="translate(610.71875 0)"/>
    <use xlink:href="#Montserrat-Thin-126" transform="translate(669.625 0)"/>
    <use xlink:href="#Montserrat-Thin-38" transform="translate(748.53125 0)"/>
    <use xlink:href="#Montserrat-Thin-48" transform="translate(831.125 0)"/>
    <use xlink:href="#Montserrat-Thin-8bd" transform="translate(898.125 0)"/>
    <use xlink:href="#Montserrat-Thin-2d" transform="translate(925.71875 0)"/>
    <use xlink:href="#Montserrat-Thin-ce" transform="translate(994.109375 0)"/>
    <use xlink:href="#Montserrat-Thin-b9" transform="translate(1078.3125 0)"/>
    <use xlink:href="#Montserrat-Thin-f8" transform="translate(1173.8125 0)"/>
    <use xlink:href="#Montserrat-Thin-a9" transform="translate(1245.40625 0)"/>
    <use xlink:href="#Montserrat-Thin-48" transform="translate(1305.3125 0)"/>
    <use xlink:href="#Montserrat-Thin-155" transform="translate(1371.609375 0)"/>
    <use xlink:href="#Montserrat-Thin-1" transform="translate(1437.40625 0)"/>
   </g>
  </g>
  <g id="text_2">
   <!-- $\alpha=r e^{i\varphi}$ -->
   <g style="fill: #ffffff" transform="translate(42.12 146.88) scale(0.32 -0.32)">
    <defs>
     <path id="STIXGeneral-Italic-200" d="M 3514 2739
L 2605 1069
L 2605 954
Q 2605 704 2662 512
Q 2720 320 2822 320
Q 2970 320 3149 794
L 3251 749
Q 3014 -58 2605 -58
Q 2291 -58 2272 614
Q 1709 -70 1030 -70
Q 589 -70 381 198
Q 173 467 173 902
Q 173 1293 329 1673
Q 486 2054 755 2330
Q 973 2547 1270 2684
Q 1568 2822 1862 2822
Q 2246 2822 2457 2595
Q 2669 2368 2669 2061
L 2963 2739
L 3514 2739
z
M 2298 1741
Q 2298 2688 1805 2688
Q 1472 2688 1085 2099
Q 698 1510 698 800
Q 698 493 806 278
Q 915 64 1139 64
Q 1606 64 2195 1286
Q 2202 1325 2230 1411
Q 2259 1498 2278 1581
Q 2298 1664 2298 1741
z
" transform="scale(0.015625)"/>
     <path id="STIXGeneral-Regular-20" d="M 4077 2048
L 307 2048
L 307 2470
L 4077 2470
L 4077 2048
z
M 4077 768
L 307 768
L 307 1190
L 4077 1190
L 4077 768
z
" transform="scale(0.015625)"/>
     <path id="STIXGeneral-Italic-55" d="M 1126 1427
L 1229 1651
Q 1446 2131 1830 2534
Q 2106 2822 2336 2822
Q 2470 2822 2553 2732
Q 2637 2643 2637 2496
Q 2637 2349 2557 2249
Q 2477 2150 2336 2150
Q 2214 2150 2112 2317
Q 2061 2406 2010 2406
Q 1837 2406 1485 1805
Q 1267 1434 1136 1104
Q 1005 774 774 0
L 288 0
L 806 1869
Q 909 2246 909 2394
Q 909 2560 666 2560
Q 614 2560 467 2541
L 467 2650
L 1459 2822
L 1478 2810
L 1126 1427
z
" transform="scale(0.015625)"/>
     <path id="STIXGeneral-Italic-48" d="M 2291 698
L 2368 621
Q 1805 -70 1062 -70
Q 672 -70 435 170
Q 198 410 198 806
Q 198 1555 796 2188
Q 1395 2822 2112 2822
Q 2362 2822 2499 2707
Q 2637 2592 2637 2387
Q 2637 1965 2147 1632
Q 1658 1299 819 1190
Q 755 1062 755 800
Q 755 538 918 378
Q 1082 218 1350 218
Q 1562 218 1754 317
Q 1946 416 2291 698
z
M 973 1613
L 864 1331
Q 1581 1504 1894 1805
Q 2214 2112 2214 2426
Q 2214 2675 1990 2675
Q 1722 2675 1430 2364
Q 1139 2054 973 1613
z
" transform="scale(0.015625)"/>
     <path id="STIXGeneral-Italic-4c" d="M 1690 3834
Q 1690 3699 1597 3603
Q 1504 3507 1376 3507
Q 1235 3507 1152 3600
Q 1069 3693 1069 3846
Q 1069 3994 1155 4090
Q 1242 4186 1370 4186
Q 1498 4186 1594 4080
Q 1690 3974 1690 3834
z
M 1421 730
L 1504 659
Q 1235 243 1049 86
Q 864 -70 627 -70
Q 314 -70 314 282
Q 314 467 454 992
L 762 2125
Q 819 2330 819 2406
Q 819 2502 745 2528
Q 672 2554 410 2560
L 410 2662
Q 704 2688 1434 2822
L 1459 2803
L 858 608
Q 794 390 794 326
Q 794 230 883 230
Q 1043 230 1421 730
z
" transform="scale(0.015625)"/>
     <path id="STIXGeneral-Italic-215" d="M 1402 64
L 1702 1133
Q 1792 1459 1894 1712
Q 1997 1965 2147 2221
Q 2298 2477 2509 2617
Q 2720 2758 2970 2758
Q 3776 2758 3776 1946
Q 3776 1606 3625 1225
Q 3475 845 3148 496
Q 2822 147 2394 6
Q 2144 -70 1850 -70
L 1510 -1312
L 1018 -1312
L 1363 -70
Q 832 -70 646 0
Q 173 186 173 813
Q 173 1306 489 1827
Q 806 2349 1274 2618
Q 1638 2822 1907 2822
L 1907 2720
Q 1581 2637 1299 2281
Q 1018 1926 864 1481
Q 710 1037 710 640
Q 710 320 889 192
Q 1069 64 1402 64
z
M 2298 1594
L 1888 64
Q 2150 64 2330 160
Q 2688 352 2963 969
Q 3238 1587 3238 2099
Q 3238 2330 3193 2451
Q 3149 2573 3097 2598
Q 3046 2624 2963 2624
Q 2752 2624 2595 2365
Q 2438 2106 2298 1594
z
" transform="scale(0.015625)"/>
    </defs>
    <use xlink:href="#STIXGeneral-Italic-200" transform="translate(0 0.915625)"/>
    <use xlink:href="#STIXGeneral-Regular-20" transform="translate(75.199951 0.915625)"/>
    <use xlink:href="#STIXGeneral-Italic-55" transform="translate(163.69989 0.915625)"/>
    <use xlink:href="#STIXGeneral-Italic-48" transform="translate(202.599854 0.915625)"/>
    <use xlink:href="#STIXGeneral-Italic-4c" transform="translate(253.109504 42.215625) scale(0.7)"/>
    <use xlink:href="#STIXGeneral-Italic-215" transform="translate(272.569485 42.215625) scale(0.7)"/>
   </g>
  </g>
  <g id="text_3">
   <!-- MAGNITUDE -->
   <g style="fill: #b9c9de" transform="translate(318.24 115.2) scale(0.11 -0.11)">
    <defs>
     <path id="Montserrat-Thin-6e" d="M 2694 -38
Q 2182 -38 1750 131
Q 1318 301 1001 608
Q 685 915 509 1331
Q 333 1747 333 2240
Q 333 2733 509 3149
Q 685 3565 1005 3872
Q 1325 4179 1757 4348
Q 2189 4518 2701 4518
Q 3213 4518 3638 4358
Q 4064 4198 4365 3872
L 4070 3571
Q 3789 3853 3449 3974
Q 3110 4096 2720 4096
Q 2304 4096 1955 3958
Q 1606 3821 1347 3568
Q 1088 3315 944 2979
Q 800 2643 800 2240
Q 800 1843 944 1504
Q 1088 1165 1347 912
Q 1606 659 1955 521
Q 2304 384 2714 384
Q 3098 384 3440 499
Q 3782 614 4070 890
L 4339 531
Q 4019 250 3590 106
Q 3162 -38 2694 -38
z
M 4339 531
L 3885 589
L 3885 2240
L 4339 2240
L 4339 531
z
" transform="scale(0.015625)"/>
     <path id="Montserrat-Thin-bf" d="M 730 0
L 730 4480
L 1120 4480
L 4211 589
L 4006 589
L 4006 4480
L 4474 4480
L 4474 0
L 4083 0
L 998 3891
L 1203 3891
L 1203 0
L 730 0
z
" transform="scale(0.015625)"/>
    </defs>
    <use xlink:href="#Montserrat-Thin-b9"/>
    <use xlink:href="#Montserrat-Thin-1" transform="translate(95.5 0)"/>
    <use xlink:href="#Montserrat-Thin-6e" transform="translate(166.203125 0)"/>
    <use xlink:href="#Montserrat-Thin-bf" transform="translate(243.5 0)"/>
    <use xlink:href="#Montserrat-Thin-87" transform="translate(324.796875 0)"/>
    <use xlink:href="#Montserrat-Thin-119" transform="translate(355 0)"/>
    <use xlink:href="#Montserrat-Thin-126" transform="translate(411 0)"/>
    <use xlink:href="#Montserrat-Thin-38" transform="translate(490.203125 0)"/>
    <use xlink:href="#Montserrat-Thin-48" transform="translate(572.796875 0)"/>
   </g>
  </g>
  <g id="text_4">
   <!-- $r=|\alpha|$ -->
   <g style="fill: #ffffff" transform="translate(318.24 167.04) scale(0.23 -0.23)">
    <defs>
     <path id="STIXGeneral-Regular-5f" d="M 851 -90
L 429 -90
L 429 4326
L 851 4326
L 851 -90
z
" transform="scale(0.015625)"/>
    </defs>
    <use xlink:href="#STIXGeneral-Italic-55" transform="translate(0 0.40625)"/>
    <use xlink:href="#STIXGeneral-Regular-20" transform="translate(58.899963 0.40625)"/>
    <use xlink:href="#STIXGeneral-Regular-5f" transform="translate(147.399902 0.40625)"/>
    <use xlink:href="#STIXGeneral-Italic-200" transform="translate(167.399887 0.40625)"/>
    <use xlink:href="#STIXGeneral-Regular-5f" transform="translate(222.599838 0.40625)"/>
   </g>
  </g>
  <g id="text_5">
   <!-- FASE -->
   <g style="fill: #b9c9de" transform="translate(524.16 115.2) scale(0.11 -0.11)">
    <defs>
     <path id="Montserrat-Thin-6b" d="M 730 0
L 730 4480
L 3802 4480
L 3802 4070
L 1203 4070
L 1203 0
L 730 0
z
M 1152 1901
L 1152 2310
L 3520 2310
L 3520 1901
L 1152 1901
z
" transform="scale(0.015625)"/>
     <path id="Montserrat-Thin-10c" d="M 1965 -38
Q 1466 -38 1008 125
Q 550 288 301 544
L 486 909
Q 723 678 1123 521
Q 1523 365 1965 365
Q 2387 365 2652 470
Q 2918 576 3043 755
Q 3168 934 3168 1152
Q 3168 1414 3017 1574
Q 2867 1734 2624 1827
Q 2381 1920 2086 1990
Q 1792 2061 1497 2141
Q 1203 2221 956 2355
Q 710 2490 560 2710
Q 410 2931 410 3290
Q 410 3622 586 3900
Q 762 4179 1126 4348
Q 1491 4518 2061 4518
Q 2438 4518 2809 4412
Q 3181 4307 3450 4122
L 3290 3744
Q 3002 3936 2678 4025
Q 2355 4115 2054 4115
Q 1651 4115 1388 4006
Q 1126 3898 1001 3715
Q 877 3533 877 3302
Q 877 3040 1027 2880
Q 1178 2720 1424 2630
Q 1670 2541 1964 2470
Q 2259 2400 2550 2317
Q 2842 2234 3088 2102
Q 3334 1971 3484 1753
Q 3635 1536 3635 1184
Q 3635 858 3456 579
Q 3277 301 2909 131
Q 2541 -38 1965 -38
z
" transform="scale(0.015625)"/>
    </defs>
    <use xlink:href="#Montserrat-Thin-6b"/>
    <use xlink:href="#Montserrat-Thin-1" transform="translate(60 0)"/>
    <use xlink:href="#Montserrat-Thin-10c" transform="translate(131.703125 0)"/>
    <use xlink:href="#Montserrat-Thin-48" transform="translate(193.203125 0)"/>
   </g>
  </g>
  <g id="text_6">
   <!-- $\varphi$ -->
   <g style="fill: #75dfd0" transform="translate(524.16 167.04) scale(0.25 -0.25)">
    <use xlink:href="#STIXGeneral-Italic-215" transform="translate(0 0.90625)"/>
   </g>
  </g>
  <g id="text_7">
   <!-- MÓDULO AO QUADRADO -->
   <g style="fill: #b9c9de" transform="translate(683.28 115.2) scale(0.11 -0.11)">
    <defs>
     <path id="Montserrat-Thin-d0" d="M 2688 -38
Q 2182 -38 1750 131
Q 1318 301 1001 611
Q 685 922 509 1334
Q 333 1747 333 2240
Q 333 2733 509 3145
Q 685 3558 1001 3868
Q 1318 4179 1747 4348
Q 2176 4518 2688 4518
Q 3194 4518 3622 4348
Q 4051 4179 4368 3872
Q 4685 3565 4861 3149
Q 5037 2733 5037 2240
Q 5037 1747 4861 1331
Q 4685 915 4368 608
Q 4051 301 3622 131
Q 3194 -38 2688 -38
z
M 2688 384
Q 3091 384 3433 521
Q 3776 659 4029 912
Q 4282 1165 4422 1501
Q 4563 1837 4563 2240
Q 4563 2643 4422 2979
Q 4282 3315 4029 3568
Q 3776 3821 3433 3958
Q 3091 4096 2688 4096
Q 2285 4096 1939 3958
Q 1594 3821 1341 3568
Q 1088 3315 944 2979
Q 800 2643 800 2240
Q 800 1843 944 1504
Q 1088 1165 1341 912
Q 1594 659 1939 521
Q 2285 384 2688 384
z
M 2272 4845
L 3149 5638
L 3757 5638
L 2720 4845
L 2272 4845
z
" transform="scale(0.015625)"/>
     <path id="Montserrat-Thin-fe" d="M 2688 -38
Q 2182 -38 1750 131
Q 1318 301 1001 611
Q 685 922 509 1334
Q 333 1747 333 2240
Q 333 2733 509 3145
Q 685 3558 1001 3868
Q 1318 4179 1747 4348
Q 2176 4518 2688 4518
Q 3194 4518 3622 4348
Q 4051 4179 4368 3872
Q 4685 3565 4861 3149
Q 5037 2733 5037 2240
Q 5037 1747 4861 1331
Q 4685 915 4368 608
Q 4051 301 3622 131
Q 3194 -38 2688 -38
z
M 4154 -890
Q 3949 -890 3757 -838
Q 3565 -787 3369 -675
Q 3174 -563 2969 -384
Q 2765 -205 2522 51
L 3040 179
Q 3238 -58 3427 -211
Q 3616 -365 3798 -438
Q 3981 -512 4160 -512
Q 4659 -512 5011 -102
L 5242 -378
Q 4819 -890 4154 -890
z
M 2688 384
Q 3091 384 3433 521
Q 3776 659 4029 915
Q 4282 1171 4422 1507
Q 4563 1843 4563 2240
Q 4563 2643 4422 2979
Q 4282 3315 4029 3568
Q 3776 3821 3433 3958
Q 3091 4096 2688 4096
Q 2285 4096 1939 3958
Q 1594 3821 1341 3568
Q 1088 3315 944 2979
Q 800 2643 800 2240
Q 800 1843 944 1507
Q 1088 1171 1341 915
Q 1594 659 1939 521
Q 2285 384 2688 384
z
" transform="scale(0.015625)"/>
     <path id="Montserrat-Thin-100" d="M 730 0
L 730 4480
L 2406 4480
Q 3258 4480 3747 4073
Q 4237 3667 4237 2944
Q 4237 2470 4016 2128
Q 3795 1786 3385 1603
Q 2976 1421 2406 1421
L 992 1421
L 1203 1638
L 1203 0
L 730 0
z
M 3789 0
L 2637 1626
L 3149 1626
L 4307 0
L 3789 0
z
M 1203 1600
L 992 1824
L 2394 1824
Q 3066 1824 3414 2118
Q 3763 2413 3763 2944
Q 3763 3482 3414 3776
Q 3066 4070 2394 4070
L 992 4070
L 1203 4294
L 1203 1600
z
" transform="scale(0.015625)"/>
    </defs>
    <use xlink:href="#Montserrat-Thin-b9"/>
    <use xlink:href="#Montserrat-Thin-d0" transform="translate(95.5 0)"/>
    <use xlink:href="#Montserrat-Thin-38" transform="translate(179.40625 0)"/>
    <use xlink:href="#Montserrat-Thin-126" transform="translate(262 0)"/>
    <use xlink:href="#Montserrat-Thin-a9" transform="translate(341.203125 0)"/>
    <use xlink:href="#Montserrat-Thin-ce" transform="translate(398.703125 0)"/>
    <use xlink:href="#Montserrat-Thin-8bd" transform="translate(482.609375 0)"/>
    <use xlink:href="#Montserrat-Thin-1" transform="translate(508.8125 0)"/>
    <use xlink:href="#Montserrat-Thin-ce" transform="translate(579.515625 0)"/>
    <use xlink:href="#Montserrat-Thin-8bd" transform="translate(663.421875 0)"/>
    <use xlink:href="#Montserrat-Thin-fe" transform="translate(689.625 0)"/>
    <use xlink:href="#Montserrat-Thin-126" transform="translate(773.53125 0)"/>
    <use xlink:href="#Montserrat-Thin-1" transform="translate(851.234375 0)"/>
    <use xlink:href="#Montserrat-Thin-38" transform="translate(922.9375 0)"/>
    <use xlink:href="#Montserrat-Thin-100" transform="translate(1005.53125 0)"/>
    <use xlink:href="#Montserrat-Thin-1" transform="translate(1077.828125 0)"/>
    <use xlink:href="#Montserrat-Thin-38" transform="translate(1149.53125 0)"/>
    <use xlink:href="#Montserrat-Thin-ce" transform="translate(1232.125 0)"/>
   </g>
  </g>
  <g id="text_8">
   <!-- $|\alpha|^2=r^2$ -->
   <g style="fill: #f7be6a" transform="translate(683.28 167.04) scale(0.24 -0.24)">
    <defs>
     <path id="STIXGeneral-Regular-15" d="M 3034 877
L 2688 0
L 186 0
L 186 77
L 1325 1286
Q 1773 1754 1965 2144
Q 2157 2534 2157 2950
Q 2157 3379 1920 3616
Q 1683 3853 1267 3853
Q 922 3853 720 3673
Q 518 3494 326 3021
L 192 3053
Q 301 3648 630 3987
Q 960 4326 1523 4326
Q 2054 4326 2380 4006
Q 2707 3686 2707 3200
Q 2707 2477 1888 1613
L 832 486
L 2330 486
Q 2541 486 2665 569
Q 2790 653 2944 915
L 3034 877
z
" transform="scale(0.015625)"/>
    </defs>
    <use xlink:href="#STIXGeneral-Regular-5f" transform="translate(0 0.384375)"/>
    <use xlink:href="#STIXGeneral-Italic-200" transform="translate(19.999985 0.384375)"/>
    <use xlink:href="#STIXGeneral-Regular-5f" transform="translate(75.199936 0.384375)"/>
    <use xlink:href="#STIXGeneral-Regular-15" transform="translate(96.774921 41.684375) scale(0.7)"/>
    <use xlink:href="#STIXGeneral-Regular-20" transform="translate(156.274889 0.384375)"/>
    <use xlink:href="#STIXGeneral-Italic-55" transform="translate(244.774828 0.384375)"/>
    <use xlink:href="#STIXGeneral-Regular-15" transform="translate(289.784478 41.684375) scale(0.7)"/>
   </g>
  </g>
  <g id="text_9">
   <!-- Um qubit puro exige duas amplitudes normalizadas $(\alpha,\beta)$. -->
   <g style="fill: #ffffff" transform="translate(42.12 239.04) scale(0.12 -0.12)">
    <defs>
     <path id="Montserrat-Thin-312" d="M 634 0
L 634 3360
L 1069 3360
L 1069 2451
L 998 2611
Q 1152 2976 1494 3184
Q 1837 3392 2304 3392
Q 2797 3392 3142 3145
Q 3488 2899 3590 2406
L 3411 2477
Q 3558 2886 3932 3139
Q 4307 3392 4832 3392
Q 5242 3392 5546 3235
Q 5850 3078 6019 2758
Q 6189 2438 6189 1952
L 6189 0
L 5734 0
L 5734 1907
Q 5734 2438 5481 2710
Q 5229 2982 4768 2982
Q 4422 2982 4169 2838
Q 3917 2694 3779 2422
Q 3642 2150 3642 1766
L 3642 0
L 3187 0
L 3187 1907
Q 3187 2438 2931 2710
Q 2675 2982 2214 2982
Q 1875 2982 1619 2838
Q 1363 2694 1225 2422
Q 1088 2150 1088 1766
L 1088 0
L 634 0
z
" transform="scale(0.015625)"/>
     <path id="Montserrat-Thin-357" d="M 1971 -32
Q 1491 -32 1110 185
Q 730 403 512 787
Q 294 1171 294 1683
Q 294 2189 512 2576
Q 730 2963 1110 3177
Q 1491 3392 1971 3392
Q 2419 3392 2768 3193
Q 3117 2995 3321 2614
Q 3526 2234 3526 1683
Q 3526 1133 3318 752
Q 3110 371 2761 169
Q 2413 -32 1971 -32
z
M 2003 371
Q 2362 371 2646 534
Q 2931 698 3094 995
Q 3258 1293 3258 1683
Q 3258 2074 3094 2368
Q 2931 2662 2646 2828
Q 2362 2995 2003 2995
Q 1651 2995 1369 2828
Q 1088 2662 921 2368
Q 755 2074 755 1683
Q 755 1293 921 995
Q 1088 698 1369 534
Q 1651 371 2003 371
z
M 3251 -1242
L 3251 998
L 3315 1677
L 3270 2349
L 3270 3360
L 3706 3360
L 3706 -1242
L 3251 -1242
z
" transform="scale(0.015625)"/>
     <path id="Montserrat-Thin-383" d="M 2022 -32
Q 1594 -32 1274 128
Q 954 288 778 608
Q 602 928 602 1408
L 602 3360
L 1056 3360
L 1056 1459
Q 1056 922 1321 650
Q 1587 378 2067 378
Q 2419 378 2678 522
Q 2938 666 3075 941
Q 3213 1216 3213 1600
L 3213 3360
L 3667 3360
L 3667 0
L 3232 0
L 3232 922
L 3302 755
Q 3142 384 2806 176
Q 2470 -32 2022 -32
z
" transform="scale(0.015625)"/>
     <path id="Montserrat-Thin-271" d="M 2368 -32
Q 1926 -32 1574 169
Q 1222 371 1017 755
Q 813 1139 813 1683
Q 813 2234 1021 2614
Q 1229 2995 1581 3193
Q 1933 3392 2368 3392
Q 2848 3392 3229 3177
Q 3610 2963 3827 2579
Q 4045 2195 4045 1683
Q 4045 1178 3827 790
Q 3610 403 3229 185
Q 2848 -32 2368 -32
z
M 634 0
L 634 4749
L 1088 4749
L 1088 2368
L 1024 1690
L 1069 1011
L 1069 0
L 634 0
z
M 2336 371
Q 2694 371 2976 534
Q 3258 698 3424 995
Q 3590 1293 3590 1683
Q 3590 2080 3424 2374
Q 3258 2669 2976 2832
Q 2694 2995 2336 2995
Q 1978 2995 1693 2832
Q 1408 2669 1245 2374
Q 1082 2080 1082 1683
Q 1082 1293 1245 995
Q 1408 698 1693 534
Q 1978 371 2336 371
z
" transform="scale(0.015625)"/>
     <path id="Montserrat-Thin-2d7" d="M 634 0
L 634 3360
L 1088 3360
L 1088 0
L 634 0
z
M 864 4102
Q 723 4102 627 4198
Q 531 4294 531 4429
Q 531 4563 627 4656
Q 723 4749 864 4749
Q 1005 4749 1101 4659
Q 1197 4570 1197 4435
Q 1197 4294 1104 4198
Q 1011 4102 864 4102
z
" transform="scale(0.015625)"/>
     <path id="Montserrat-Thin-375" d="M 1696 -32
Q 1222 -32 966 224
Q 710 480 710 947
L 710 4102
L 1165 4102
L 1165 973
Q 1165 678 1315 518
Q 1466 358 1747 358
Q 2048 358 2246 531
L 2406 205
Q 2272 83 2083 25
Q 1894 -32 1696 -32
z
M 109 2982
L 109 3360
L 2189 3360
L 2189 2982
L 109 2982
z
" transform="scale(0.015625)"/>
     <path id="Montserrat-Thin-351" d="M 2368 -32
Q 1933 -32 1581 169
Q 1229 371 1021 752
Q 813 1133 813 1683
Q 813 2234 1017 2614
Q 1222 2995 1574 3193
Q 1926 3392 2368 3392
Q 2848 3392 3229 3177
Q 3610 2963 3827 2576
Q 4045 2189 4045 1683
Q 4045 1171 3827 787
Q 3610 403 3229 185
Q 2848 -32 2368 -32
z
M 634 -1242
L 634 3360
L 1069 3360
L 1069 2349
L 1024 1677
L 1088 998
L 1088 -1242
L 634 -1242
z
M 2336 371
Q 2694 371 2976 534
Q 3258 698 3424 995
Q 3590 1293 3590 1683
Q 3590 2074 3424 2368
Q 3258 2662 2976 2828
Q 2694 2995 2336 2995
Q 1978 2995 1693 2828
Q 1408 2662 1245 2368
Q 1082 2074 1082 1683
Q 1082 1293 1245 995
Q 1408 698 1693 534
Q 1978 371 2336 371
z
" transform="scale(0.015625)"/>
     <path id="Montserrat-Thin-359" d="M 634 0
L 634 3360
L 1069 3360
L 1069 2445
L 1024 2605
Q 1165 2989 1497 3190
Q 1830 3392 2323 3392
L 2323 2950
Q 2298 2950 2272 2953
Q 2246 2957 2221 2957
Q 1690 2957 1389 2633
Q 1088 2310 1088 1715
L 1088 0
L 634 0
z
" transform="scale(0.015625)"/>
     <path id="Montserrat-Thin-327" d="M 2003 -32
Q 1517 -32 1129 189
Q 742 410 518 797
Q 294 1184 294 1683
Q 294 2189 518 2573
Q 742 2957 1126 3174
Q 1510 3392 2003 3392
Q 2502 3392 2889 3174
Q 3277 2957 3497 2573
Q 3718 2189 3718 1683
Q 3718 1184 3497 797
Q 3277 410 2886 189
Q 2496 -32 2003 -32
z
M 2003 371
Q 2368 371 2649 534
Q 2931 698 3094 995
Q 3258 1293 3258 1683
Q 3258 2080 3094 2374
Q 2931 2669 2649 2832
Q 2368 2995 2010 2995
Q 1651 2995 1369 2832
Q 1088 2669 921 2374
Q 755 2080 755 1683
Q 755 1293 921 995
Q 1088 698 1369 534
Q 1651 371 2003 371
z
" transform="scale(0.015625)"/>
     <path id="Montserrat-Thin-295" d="M 2061 -32
Q 1536 -32 1139 189
Q 742 410 518 797
Q 294 1184 294 1683
Q 294 2182 508 2566
Q 723 2950 1097 3171
Q 1472 3392 1939 3392
Q 2413 3392 2781 3177
Q 3149 2963 3360 2576
Q 3571 2189 3571 1683
Q 3571 1651 3568 1616
Q 3565 1581 3565 1542
L 640 1542
L 640 1882
L 3322 1882
L 3142 1747
Q 3142 2112 2985 2397
Q 2829 2682 2560 2842
Q 2291 3002 1939 3002
Q 1594 3002 1318 2842
Q 1043 2682 889 2394
Q 736 2106 736 1734
L 736 1664
Q 736 1280 905 989
Q 1075 698 1379 534
Q 1683 371 2074 371
Q 2381 371 2646 480
Q 2912 589 3104 813
L 3360 518
Q 3136 250 2800 109
Q 2464 -32 2061 -32
z
" transform="scale(0.015625)"/>
     <path id="Montserrat-Thin-3b2" d="M 122 0
L 1542 1843
L 1536 1619
L 186 3360
L 698 3360
L 1805 1920
L 1613 1926
L 2720 3360
L 3219 3360
L 1856 1600
L 1862 1843
L 3296 0
L 2778 0
L 1606 1536
L 1786 1510
L 634 0
L 122 0
z
" transform="scale(0.015625)"/>
     <path id="Montserrat-Thin-2bb" d="M 2067 -1274
Q 1606 -1274 1184 -1139
Q 762 -1005 499 -755
L 730 -410
Q 966 -621 1315 -745
Q 1664 -870 2054 -870
Q 2694 -870 2995 -572
Q 3296 -275 3296 352
L 3296 1190
L 3360 1766
L 3315 2342
L 3315 3360
L 3750 3360
L 3750 410
Q 3750 -461 3324 -867
Q 2899 -1274 2067 -1274
z
M 1984 128
Q 1504 128 1120 336
Q 736 544 515 915
Q 294 1286 294 1766
Q 294 2246 515 2614
Q 736 2982 1120 3187
Q 1504 3392 1984 3392
Q 2432 3392 2790 3206
Q 3149 3021 3360 2656
Q 3571 2291 3571 1766
Q 3571 1242 3360 877
Q 3149 512 2790 320
Q 2432 128 1984 128
z
M 2029 531
Q 2400 531 2688 688
Q 2976 845 3142 1123
Q 3309 1402 3309 1766
Q 3309 2131 3142 2406
Q 2976 2682 2688 2838
Q 2400 2995 2029 2995
Q 1664 2995 1373 2838
Q 1082 2682 918 2406
Q 755 2131 755 1766
Q 755 1402 918 1123
Q 1082 845 1373 688
Q 1664 531 2029 531
z
" transform="scale(0.015625)"/>
     <path id="Montserrat-Thin-286" d="M 1971 -32
Q 1491 -32 1110 185
Q 730 403 512 790
Q 294 1178 294 1683
Q 294 2195 512 2579
Q 730 2963 1110 3177
Q 1491 3392 1971 3392
Q 2413 3392 2761 3193
Q 3110 2995 3318 2614
Q 3526 2234 3526 1683
Q 3526 1139 3321 755
Q 3117 371 2768 169
Q 2419 -32 1971 -32
z
M 2003 371
Q 2362 371 2646 534
Q 2931 698 3094 995
Q 3258 1293 3258 1683
Q 3258 2080 3094 2374
Q 2931 2669 2646 2832
Q 2362 2995 2003 2995
Q 1651 2995 1369 2832
Q 1088 2669 921 2374
Q 755 2080 755 1683
Q 755 1293 921 995
Q 1088 698 1369 534
Q 1651 371 2003 371
z
M 3270 0
L 3270 1011
L 3315 1690
L 3251 2368
L 3251 4749
L 3706 4749
L 3706 0
L 3270 0
z
" transform="scale(0.015625)"/>
     <path id="Montserrat-Thin-24c" d="M 2739 0
L 2739 742
L 2720 864
L 2720 2106
Q 2720 2534 2480 2764
Q 2240 2995 1766 2995
Q 1440 2995 1145 2886
Q 851 2778 646 2598
L 442 2938
Q 698 3155 1056 3273
Q 1414 3392 1811 3392
Q 2464 3392 2819 3069
Q 3174 2746 3174 2086
L 3174 0
L 2739 0
z
M 1581 -32
Q 1203 -32 924 93
Q 646 218 499 438
Q 352 659 352 947
Q 352 1210 477 1424
Q 602 1638 886 1769
Q 1171 1901 1651 1901
L 2810 1901
L 2810 1562
L 1664 1562
Q 1178 1562 989 1389
Q 800 1216 800 960
Q 800 672 1024 499
Q 1248 326 1651 326
Q 2035 326 2313 502
Q 2592 678 2720 1011
L 2822 698
Q 2694 365 2377 166
Q 2061 -32 1581 -32
z
" transform="scale(0.015625)"/>
     <path id="Montserrat-Thin-367" d="M 1536 -32
Q 1120 -32 749 86
Q 378 205 166 384
L 371 742
Q 576 589 896 477
Q 1216 365 1568 365
Q 2048 365 2259 515
Q 2470 666 2470 915
Q 2470 1101 2352 1206
Q 2234 1312 2042 1366
Q 1850 1421 1613 1459
Q 1376 1498 1142 1549
Q 909 1600 717 1699
Q 525 1798 406 1971
Q 288 2144 288 2432
Q 288 2707 441 2924
Q 595 3142 892 3267
Q 1190 3392 1619 3392
Q 1946 3392 2272 3305
Q 2598 3219 2810 3078
L 2611 2714
Q 2387 2867 2131 2934
Q 1875 3002 1619 3002
Q 1165 3002 950 2845
Q 736 2688 736 2445
Q 736 2253 854 2144
Q 973 2035 1168 1974
Q 1363 1914 1596 1875
Q 1830 1837 2064 1782
Q 2298 1728 2493 1635
Q 2688 1542 2806 1372
Q 2925 1203 2925 928
Q 2925 634 2761 419
Q 2598 205 2288 86
Q 1978 -32 1536 -32
z
" transform="scale(0.015625)"/>
     <path id="Montserrat-Thin-301" d="M 634 0
L 634 4749
L 1088 4749
L 1088 0
L 634 0
z
" transform="scale(0.015625)"/>
     <path id="Montserrat-Thin-318" d="M 634 0
L 634 3360
L 1069 3360
L 1069 2438
L 998 2611
Q 1158 2976 1510 3184
Q 1862 3392 2349 3392
Q 2758 3392 3068 3235
Q 3379 3078 3555 2758
Q 3731 2438 3731 1952
L 3731 0
L 3277 0
L 3277 1907
Q 3277 2438 3011 2710
Q 2746 2982 2266 2982
Q 1907 2982 1641 2838
Q 1376 2694 1232 2422
Q 1088 2150 1088 1766
L 1088 0
L 634 0
z
" transform="scale(0.015625)"/>
     <path id="Montserrat-Thin-3c3" d="M 269 0
L 269 301
L 2509 3136
L 2605 2982
L 307 2982
L 307 3360
L 2963 3360
L 2963 3066
L 730 224
L 614 378
L 3008 378
L 3008 0
L 269 0
z
" transform="scale(0.015625)"/>
     <path id="STIXGeneral-Regular-b" d="M 1946 -1030
L 1869 -1133
Q 1126 -710 716 32
Q 307 774 307 1613
Q 307 3386 1888 4326
L 1946 4224
Q 1293 3667 1075 3126
Q 858 2586 858 1632
Q 858 685 1082 96
Q 1306 -493 1946 -1030
z
" transform="scale(0.015625)"/>
     <path id="STIXGeneral-Regular-f" d="M 531 -902
L 467 -781
Q 998 -422 998 -96
Q 998 -13 909 -13
Q 883 -13 822 -25
Q 762 -38 723 -38
Q 352 -38 352 288
Q 352 454 457 553
Q 563 653 736 653
Q 954 653 1101 496
Q 1248 339 1248 96
Q 1248 -198 1053 -473
Q 858 -749 531 -902
z
" transform="scale(0.015625)"/>
     <path id="STIXGeneral-Italic-201" d="M -58 -813
L 819 2355
Q 902 2662 995 2908
Q 1088 3155 1235 3433
Q 1382 3712 1555 3901
Q 1728 4090 1977 4214
Q 2227 4339 2515 4339
Q 2816 4339 3053 4182
Q 3290 4026 3290 3693
Q 3290 3328 3037 3001
Q 2784 2675 2470 2534
L 2470 2528
Q 2682 2509 2858 2320
Q 3034 2131 3034 1818
Q 3034 1376 2694 873
Q 2355 371 1901 122
Q 1562 -70 1107 -70
Q 922 -70 685 38
L 442 -813
Q 352 -1126 243 -1312
L -256 -1312
Q -154 -1158 -58 -813
z
M 1491 3053
L 762 288
Q 762 186 848 118
Q 934 51 1069 51
Q 1594 51 2029 704
Q 2464 1357 2464 2029
Q 2464 2406 2208 2406
Q 2150 2406 2044 2380
Q 1939 2355 1888 2355
Q 1805 2355 1750 2396
Q 1696 2438 1696 2496
Q 1696 2650 1978 2650
Q 1997 2650 2099 2630
Q 2202 2611 2253 2611
Q 2451 2611 2640 2969
Q 2829 3328 2829 3622
Q 2829 3962 2713 4083
Q 2598 4205 2400 4205
Q 2080 4205 1846 3865
Q 1613 3526 1491 3053
z
" transform="scale(0.015625)"/>
     <path id="STIXGeneral-Regular-c" d="M 186 4224
L 262 4326
Q 992 3891 1408 3148
Q 1824 2406 1824 1581
Q 1824 -166 243 -1133
L 186 -1030
Q 845 -486 1059 54
Q 1274 595 1274 1562
Q 1274 2534 1059 3120
Q 845 3706 186 4224
z
" transform="scale(0.015625)"/>
     <path id="Montserrat-Thin-8c8" d="M 678 -32
Q 538 -32 438 70
Q 339 173 339 320
Q 339 474 438 570
Q 538 666 678 666
Q 819 666 918 570
Q 1018 474 1018 320
Q 1018 173 918 70
Q 819 -32 678 -32
z
" transform="scale(0.015625)"/>
    </defs>
    <use xlink:href="#Montserrat-Thin-126" transform="translate(0 0.796875)"/>
    <use xlink:href="#Montserrat-Thin-312" transform="translate(79.199921 0.796875)"/>
    <use xlink:href="#Montserrat-Thin-8bd" transform="translate(185.29982 0.796875)"/>
    <use xlink:href="#Montserrat-Thin-357" transform="translate(211.499802 0.796875)"/>
    <use xlink:href="#Montserrat-Thin-383" transform="translate(279.299744 0.796875)"/>
    <use xlink:href="#Montserrat-Thin-271" transform="translate(346.49968 0.796875)"/>
    <use xlink:href="#Montserrat-Thin-2d7" transform="translate(414.299622 0.796875)"/>
    <use xlink:href="#Montserrat-Thin-375" transform="translate(441.1996 0.796875)"/>
    <use xlink:href="#Montserrat-Thin-8bd" transform="translate(481.799561 0.796875)"/>
    <use xlink:href="#Montserrat-Thin-351" transform="translate(507.999542 0.796875)"/>
    <use xlink:href="#Montserrat-Thin-383" transform="translate(575.799484 0.796875)"/>
    <use xlink:href="#Montserrat-Thin-359" transform="translate(642.99942 0.796875)"/>
    <use xlink:href="#Montserrat-Thin-327" transform="translate(683.09938 0.796875)"/>
    <use xlink:href="#Montserrat-Thin-8bd" transform="translate(745.799316 0.796875)"/>
    <use xlink:href="#Montserrat-Thin-295" transform="translate(771.999298 0.796875)"/>
    <use xlink:href="#Montserrat-Thin-3b2" transform="translate(832.399246 0.796875)"/>
    <use xlink:href="#Montserrat-Thin-2d7" transform="translate(885.799194 0.796875)"/>
    <use xlink:href="#Montserrat-Thin-2bb" transform="translate(912.699173 0.796875)"/>
    <use xlink:href="#Montserrat-Thin-295" transform="translate(981.199112 0.796875)"/>
    <use xlink:href="#Montserrat-Thin-8bd" transform="translate(1041.59906 0.796875)"/>
    <use xlink:href="#Montserrat-Thin-286" transform="translate(1067.799042 0.796875)"/>
    <use xlink:href="#Montserrat-Thin-383" transform="translate(1135.598984 0.796875)"/>
    <use xlink:href="#Montserrat-Thin-24c" transform="translate(1202.79892 0.796875)"/>
    <use xlink:href="#Montserrat-Thin-367" transform="translate(1261.798859 0.796875)"/>
    <use xlink:href="#Montserrat-Thin-8bd" transform="translate(1310.598816 0.796875)"/>
    <use xlink:href="#Montserrat-Thin-24c" transform="translate(1336.798798 0.796875)"/>
    <use xlink:href="#Montserrat-Thin-312" transform="translate(1395.798737 0.796875)"/>
    <use xlink:href="#Montserrat-Thin-351" transform="translate(1501.898636 0.796875)"/>
    <use xlink:href="#Montserrat-Thin-301" transform="translate(1569.698578 0.796875)"/>
    <use xlink:href="#Montserrat-Thin-2d7" transform="translate(1596.598557 0.796875)"/>
    <use xlink:href="#Montserrat-Thin-375" transform="translate(1623.498535 0.796875)"/>
    <use xlink:href="#Montserrat-Thin-383" transform="translate(1664.098495 0.796875)"/>
    <use xlink:href="#Montserrat-Thin-286" transform="translate(1731.298431 0.796875)"/>
    <use xlink:href="#Montserrat-Thin-295" transform="translate(1799.098373 0.796875)"/>
    <use xlink:href="#Montserrat-Thin-367" transform="translate(1859.498322 0.796875)"/>
    <use xlink:href="#Montserrat-Thin-8bd" transform="translate(1908.298279 0.796875)"/>
    <use xlink:href="#Montserrat-Thin-318" transform="translate(1934.49826 0.796875)"/>
    <use xlink:href="#Montserrat-Thin-327" transform="translate(2002.09819 0.796875)"/>
    <use xlink:href="#Montserrat-Thin-359" transform="translate(2064.798126 0.796875)"/>
    <use xlink:href="#Montserrat-Thin-312" transform="translate(2104.898087 0.796875)"/>
    <use xlink:href="#Montserrat-Thin-24c" transform="translate(2210.997986 0.796875)"/>
    <use xlink:href="#Montserrat-Thin-301" transform="translate(2269.997925 0.796875)"/>
    <use xlink:href="#Montserrat-Thin-2d7" transform="translate(2296.897903 0.796875)"/>
    <use xlink:href="#Montserrat-Thin-3c3" transform="translate(2323.797882 0.796875)"/>
    <use xlink:href="#Montserrat-Thin-24c" transform="translate(2374.897827 0.796875)"/>
    <use xlink:href="#Montserrat-Thin-286" transform="translate(2433.897766 0.796875)"/>
    <use xlink:href="#Montserrat-Thin-24c" transform="translate(2501.697708 0.796875)"/>
    <use xlink:href="#Montserrat-Thin-367" transform="translate(2560.697647 0.796875)"/>
    <use xlink:href="#Montserrat-Thin-8bd" transform="translate(2609.497604 0.796875)"/>
    <use xlink:href="#STIXGeneral-Regular-b" transform="translate(2635.697586 0.796875)"/>
    <use xlink:href="#STIXGeneral-Italic-200" transform="translate(2668.997559 0.796875)"/>
    <use xlink:href="#STIXGeneral-Regular-f" transform="translate(2724.19751 0.796875)"/>
    <use xlink:href="#STIXGeneral-Italic-201" transform="translate(2769.197479 0.796875)"/>
    <use xlink:href="#STIXGeneral-Regular-c" transform="translate(2819.797424 0.796875)"/>
    <use xlink:href="#Montserrat-Thin-8c8" transform="translate(2853.097397 0.796875)"/>
   </g>
  </g>
  <g id="text_10">
   <!-- $P(0)=|\alpha|^2,\quad P(1)=|\beta|^2,\quad |\alpha|^2+|\beta|^2=1$. Se $r=0$, a fase é indefinida. -->
   <g style="fill: #b9c9de" transform="translate(42.12 269.28) scale(0.1 -0.1)">
    <defs>
     <path id="STIXGeneral-Italic-33" d="M 934 4179
L 2477 4179
Q 3872 4179 3872 3232
Q 3872 2976 3753 2729
Q 3635 2483 3437 2317
Q 2995 1952 2125 1952
Q 1773 1952 1549 2003
L 1210 768
Q 1120 422 1120 365
Q 1120 250 1216 189
Q 1312 128 1562 102
L 1562 0
L 0 0
L 0 102
Q 275 141 361 227
Q 448 314 538 627
L 1280 3277
Q 1389 3667 1389 3808
Q 1389 3936 1299 3990
Q 1210 4045 934 4077
L 934 4179
z
M 2048 3789
L 1606 2221
Q 1792 2189 1939 2189
Q 2496 2189 2758 2342
Q 3213 2598 3213 3200
Q 3213 3987 2381 3987
Q 2099 3987 2048 3789
z
" transform="scale(0.015625)"/>
     <path id="STIXGeneral-Regular-13" d="M 3046 2112
Q 3046 1683 2963 1302
Q 2880 922 2717 602
Q 2554 282 2266 96
Q 1978 -90 1600 -90
Q 1210 -90 915 108
Q 621 307 461 640
Q 301 973 227 1350
Q 154 1728 154 2150
Q 154 2746 301 3222
Q 448 3699 790 4012
Q 1133 4326 1626 4326
Q 2253 4326 2649 3712
Q 3046 3098 3046 2112
z
M 2432 2080
Q 2432 3091 2217 3625
Q 2003 4160 1587 4160
Q 1190 4160 979 3622
Q 768 3085 768 2106
Q 768 1120 979 598
Q 1190 77 1600 77
Q 2003 77 2217 598
Q 2432 1120 2432 2080
z
" transform="scale(0.015625)"/>
     <path id="STIXGeneral-Regular-14" d="M 2522 0
L 755 0
L 755 96
Q 1107 115 1235 227
Q 1363 339 1363 608
L 1363 3482
Q 1363 3795 1171 3795
Q 1082 3795 883 3718
L 710 3654
L 710 3744
L 1856 4326
L 1914 4307
L 1914 486
Q 1914 275 2042 185
Q 2170 96 2522 96
L 2522 0
z
" transform="scale(0.015625)"/>
     <path id="STIXGeneral-Regular-e" d="M 4070 1408
L 2400 1408
L 2400 -262
L 1978 -262
L 1978 1408
L 307 1408
L 307 1830
L 1978 1830
L 1978 3501
L 2400 3501
L 2400 1830
L 4070 1830
L 4070 1408
z
" transform="scale(0.015625)"/>
     <path id="Montserrat-Thin-8c9" d="M 358 -934
L 640 250
L 691 -26
Q 544 -26 445 70
Q 346 166 346 320
Q 346 474 445 570
Q 544 666 685 666
Q 832 666 925 563
Q 1018 461 1018 320
Q 1018 269 1011 217
Q 1005 166 985 102
Q 966 38 934 -51
L 666 -934
L 358 -934
z
" transform="scale(0.015625)"/>
     <path id="Montserrat-Thin-2b9" d="M 710 0
L 710 3782
Q 710 4230 972 4505
Q 1235 4781 1728 4781
Q 1920 4781 2099 4729
Q 2278 4678 2400 4570
L 2246 4230
Q 2150 4314 2022 4355
Q 1894 4397 1747 4397
Q 1459 4397 1305 4237
Q 1152 4077 1152 3763
L 1152 3251
L 1165 3040
L 1165 0
L 710 0
z
M 109 2982
L 109 3360
L 2189 3360
L 2189 2982
L 109 2982
z
" transform="scale(0.015625)"/>
     <path id="Montserrat-Thin-296" d="M 2061 -32
Q 1536 -32 1139 189
Q 742 410 518 797
Q 294 1184 294 1683
Q 294 2182 508 2566
Q 723 2950 1097 3171
Q 1472 3392 1939 3392
Q 2413 3392 2781 3177
Q 3149 2963 3360 2576
Q 3571 2189 3571 1683
Q 3571 1651 3568 1616
Q 3565 1581 3565 1542
L 640 1542
L 640 1882
L 3322 1882
L 3142 1747
Q 3142 2112 2985 2397
Q 2829 2682 2560 2842
Q 2291 3002 1939 3002
Q 1594 3002 1318 2842
Q 1043 2682 889 2394
Q 736 2106 736 1734
L 736 1664
Q 736 1280 905 989
Q 1075 698 1379 534
Q 1683 371 2074 371
Q 2381 371 2646 480
Q 2912 589 3104 813
L 3360 518
Q 3136 250 2800 109
Q 2464 -32 2061 -32
z
M 1517 3885
L 2394 4678
L 3002 4678
L 1965 3885
L 1517 3885
z
" transform="scale(0.015625)"/>
    </defs>
    <use xlink:href="#STIXGeneral-Italic-33" transform="translate(0 0.384375)"/>
    <use xlink:href="#STIXGeneral-Regular-b" transform="translate(61.099945 0.384375)"/>
    <use xlink:href="#STIXGeneral-Regular-13" transform="translate(94.399918 0.384375)"/>
    <use xlink:href="#STIXGeneral-Regular-c" transform="translate(144.399872 0.384375)"/>
    <use xlink:href="#STIXGeneral-Regular-20" transform="translate(197.699844 0.384375)"/>
    <use xlink:href="#STIXGeneral-Regular-5f" transform="translate(286.199783 0.384375)"/>
    <use xlink:href="#STIXGeneral-Italic-200" transform="translate(306.199768 0.384375)"/>
    <use xlink:href="#STIXGeneral-Regular-5f" transform="translate(361.399719 0.384375)"/>
    <use xlink:href="#STIXGeneral-Regular-15" transform="translate(382.974704 41.684375) scale(0.7)"/>
    <use xlink:href="#STIXGeneral-Regular-f" transform="translate(422.474672 0.384375)"/>
    <use xlink:href="#STIXGeneral-Italic-33" transform="translate(567.474641 0.384375)"/>
    <use xlink:href="#STIXGeneral-Regular-b" transform="translate(628.574586 0.384375)"/>
    <use xlink:href="#STIXGeneral-Regular-14" transform="translate(661.874559 0.384375)"/>
    <use xlink:href="#STIXGeneral-Regular-c" transform="translate(711.874513 0.384375)"/>
    <use xlink:href="#STIXGeneral-Regular-20" transform="translate(765.174486 0.384375)"/>
    <use xlink:href="#STIXGeneral-Regular-5f" transform="translate(853.674425 0.384375)"/>
    <use xlink:href="#STIXGeneral-Italic-201" transform="translate(873.674409 0.384375)"/>
    <use xlink:href="#STIXGeneral-Regular-5f" transform="translate(924.274355 0.384375)"/>
    <use xlink:href="#STIXGeneral-Regular-15" transform="translate(945.849339 41.684375) scale(0.7)"/>
    <use xlink:href="#STIXGeneral-Regular-f" transform="translate(985.349307 0.384375)"/>
    <use xlink:href="#STIXGeneral-Regular-5f" transform="translate(1130.349277 0.384375)"/>
    <use xlink:href="#STIXGeneral-Italic-200" transform="translate(1150.349261 0.384375)"/>
    <use xlink:href="#STIXGeneral-Regular-5f" transform="translate(1205.549213 0.384375)"/>
    <use xlink:href="#STIXGeneral-Regular-15" transform="translate(1227.124197 41.684375) scale(0.7)"/>
    <use xlink:href="#STIXGeneral-Regular-e" transform="translate(1286.624165 0.384375)"/>
    <use xlink:href="#STIXGeneral-Regular-5f" transform="translate(1375.124104 0.384375)"/>
    <use xlink:href="#STIXGeneral-Italic-201" transform="translate(1395.124089 0.384375)"/>
    <use xlink:href="#STIXGeneral-Regular-5f" transform="translate(1445.724034 0.384375)"/>
    <use xlink:href="#STIXGeneral-Regular-15" transform="translate(1467.299019 41.684375) scale(0.7)"/>
    <use xlink:href="#STIXGeneral-Regular-20" transform="translate(1526.798987 0.384375)"/>
    <use xlink:href="#STIXGeneral-Regular-14" transform="translate(1615.298926 0.384375)"/>
    <use xlink:href="#Montserrat-Thin-8c8" transform="translate(1665.29888 0.384375)"/>
    <use xlink:href="#Montserrat-Thin-8bd" transform="translate(1686.498862 0.384375)"/>
    <use xlink:href="#Montserrat-Thin-10c" transform="translate(1712.698843 0.384375)"/>
    <use xlink:href="#Montserrat-Thin-295" transform="translate(1774.198782 0.384375)"/>
    <use xlink:href="#Montserrat-Thin-8bd" transform="translate(1834.59873 0.384375)"/>
    <use xlink:href="#STIXGeneral-Italic-55" transform="translate(1860.798712 0.384375)"/>
    <use xlink:href="#STIXGeneral-Regular-20" transform="translate(1919.698676 0.384375)"/>
    <use xlink:href="#STIXGeneral-Regular-13" transform="translate(2008.198615 0.384375)"/>
    <use xlink:href="#Montserrat-Thin-8c9" transform="translate(2058.198569 0.384375)"/>
    <use xlink:href="#Montserrat-Thin-8bd" transform="translate(2079.39855 0.384375)"/>
    <use xlink:href="#Montserrat-Thin-24c" transform="translate(2105.598532 0.384375)"/>
    <use xlink:href="#Montserrat-Thin-8bd" transform="translate(2164.598471 0.384375)"/>
    <use xlink:href="#Montserrat-Thin-2b9" transform="translate(2190.798453 0.384375)"/>
    <use xlink:href="#Montserrat-Thin-24c" transform="translate(2224.698416 0.384375)"/>
    <use xlink:href="#Montserrat-Thin-367" transform="translate(2283.698355 0.384375)"/>
    <use xlink:href="#Montserrat-Thin-295" transform="translate(2332.498312 0.384375)"/>
    <use xlink:href="#Montserrat-Thin-8bd" transform="translate(2392.89826 0.384375)"/>
    <use xlink:href="#Montserrat-Thin-296" transform="translate(2419.098242 0.384375)"/>
    <use xlink:href="#Montserrat-Thin-8bd" transform="translate(2479.49819 0.384375)"/>
    <use xlink:href="#Montserrat-Thin-2d7" transform="translate(2505.698172 0.384375)"/>
    <use xlink:href="#Montserrat-Thin-318" transform="translate(2532.598151 0.384375)"/>
    <use xlink:href="#Montserrat-Thin-286" transform="translate(2600.19808 0.384375)"/>
    <use xlink:href="#Montserrat-Thin-295" transform="translate(2667.998022 0.384375)"/>
    <use xlink:href="#Montserrat-Thin-2b9" transform="translate(2728.397971 0.384375)"/>
    <use xlink:href="#Montserrat-Thin-2d7" transform="translate(2762.297934 0.384375)"/>
    <use xlink:href="#Montserrat-Thin-318" transform="translate(2789.197913 0.384375)"/>
    <use xlink:href="#Montserrat-Thin-2d7" transform="translate(2856.797842 0.384375)"/>
    <use xlink:href="#Montserrat-Thin-286" transform="translate(2883.697821 0.384375)"/>
    <use xlink:href="#Montserrat-Thin-24c" transform="translate(2951.497763 0.384375)"/>
    <use xlink:href="#Montserrat-Thin-8c8" transform="translate(3010.497702 0.384375)"/>
   </g>
  </g>
 </g>
</svg>
